<svg version="1.2" xmlns="http://www.w3.org/2000/svg" viewBox="0 0 100 102" width="100" height="102">
	<title>thum-svg</title>
	<style>
		tspan { white-space:pre } 
		.s0 { fill: #000000 } 
		.t1 { font-size: 5px;fill: #000000;font-family: "' Helvetica  Neue'" } 
	</style>
	<g id="Layer">
		<g id="Layer">
			<g id="Layer">
				<path id="Layer" fill-rule="evenodd" class="s0" d="m90.3 50.8c-3.7 16.1-13.6 37.7-39.9 49.1q-0.2 0.1-0.6 0.1-0.3 0-0.6-0.1c-26.2-11.4-36.1-33-39.8-49.1-4-17.4-1.8-31.9-1.7-32.5 0.1-0.7 0.6-1.3 1.3-1.3 22.9-2 39.7-16.5 39.8-16.6 0.6-0.5 1.5-0.5 2 0 0.2 0.1 17 14.6 39.9 16.6 0.7 0 1.2 0.6 1.3 1.3 0.1 0.6 2.3 15.1-1.7 32.5zm-1.1-30.9c-20.3-2.1-35.4-13.2-39.4-16.4-3.9 3.2-19 14.3-39.3 16.4-0.4 3.7-1.4 16.2 1.9 30.3 5.1 22.2 17.7 37.9 37.4 46.6 19.8-8.7 32.4-24.4 37.5-46.6 3.2-14.1 2.3-26.6 1.9-30.3z"/>
				<path id="Layer" fill-rule="evenodd" class="s0" d="m81.8 26.2c0 0.5 6.4 45.1-31.4 61.4q-0.2 0.2-0.6 0.2-0.3 0-0.6-0.2c-37.7-16.3-31.3-60.9-31.3-61.4 0.1-0.7 0.7-1.2 1.4-1.3 17-1.4 29.4-12.2 29.5-12.3 0.6-0.5 1.5-0.5 2 0 0.2 0.1 12.6 10.9 29.6 12.3 0.7 0.1 1.3 0.6 1.4 1.3zm-2.9 1.6c-14.7-1.6-25.8-9.5-29.1-12.1-3.3 2.6-14.3 10.5-29 12.1-0.7 6.9-2.6 42.6 29 56.8 31.7-14.2 29.8-49.9 29.1-56.8z"/>
				<path id="Layer" fill-rule="evenodd" class="s0" d="m66.6 37.4c1.2 1.2 1.8 2.7 1.8 4.4-0.1 1.6-0.7 3.2-1.9 4.3l-15.6 15.3c-1.1 1.1-2.7 1.7-4.3 1.7-1.6 0-3.1-0.6-4.3-1.7l-8.5-8.3c-1.2-1.2-1.9-2.7-1.9-4.4 0-1.6 0.6-3.2 1.8-4.3 2.3-2.5 6.2-2.5 8.7-0.2l4.2 4.1 11.3-11c2.4-2.4 6.3-2.3 8.7 0.1zm-1.3 4.3c0-0.8-0.3-1.6-0.9-2.2-1.2-1.2-3.2-1.3-4.4 0l-12.3 12c-0.6 0.6-1.6 0.6-2.1 0l-5.3-5.1c-0.6-0.6-1.4-0.9-2.2-0.9-0.8 0-1.7 0.3-2.3 1-0.6 0.6-0.9 1.4-0.9 2.2 0.1 0.8 0.4 1.6 1 2.2l8.5 8.3c1.2 1.2 3.2 1.1 4.4 0l15.6-15.3c0.6-0.5 0.9-1.3 0.9-2.2z"/>
			</g>
		</g>
	</g>
	<text id="Created by AomAm" style="transform: matrix(1,0,0,1,0,115)" >
		<tspan x="0" y="0" class="t1">Created by AomAm
</tspan>
	</text>
	<text id="from the Noun Project" style="transform: matrix(1,0,0,1,0,120)" >
		<tspan x="0" y="0" class="t1">from the Noun Project
</tspan>
	</text>
</svg>